<svg xmlns="http://www.w3.org/2000/svg" xmlns:xlink="http://www.w3.org/1999/xlink" width="500" zoomAndPan="magnify" viewBox="0 0 375 374.999991" height="500" preserveAspectRatio="xMidYMid meet" version="1.0"><path fill="#5271ff" d="M 187.5 0 C 291.078125 0 375 83.996094 375 187.5 C 375 281.285156 291.003906 375 187.5 375 C 83.996094 375 0 291.078125 0 187.5 C 0 83.921875 83.996094 0 187.5 0 Z M 187.5 0 " fill-opacity="1" fill-rule="nonzero"/><path fill="#ffffff" d="M 190.148438 144.289062 L 267.375 188.972656 L 190.148438 62.351562 Z M 190.148438 144.289062 " fill-opacity="1" fill-rule="nonzero"/><path fill="#ffffff" d="M 184.921875 144.289062 L 184.921875 62.351562 L 107.625 188.972656 Z M 184.921875 144.289062 " fill-opacity="1" fill-rule="nonzero"/><path fill="#ffffff" d="M 190.148438 312.722656 L 267.445312 206.125 L 190.148438 251.621094 Z M 190.148438 312.722656 " fill-opacity="1" fill-rule="nonzero"/><path fill="#ffffff" d="M 107.625 206.125 L 184.921875 312.722656 L 184.921875 251.621094 Z M 107.625 206.125 " fill-opacity="1" fill-rule="nonzero"/><path fill="#ffffff" d="M 190.148438 149.957031 L 190.148438 239.324219 L 257.289062 200.53125 L 267.445312 194.640625 L 267.375 194.640625 Z M 190.148438 149.957031 " fill-opacity="1" fill-rule="nonzero"/><path fill="#ffffff" d="M 184.921875 239.324219 L 184.921875 149.957031 L 107.625 194.640625 L 124.042969 204.136719 Z M 184.921875 239.324219 " fill-opacity="1" fill-rule="nonzero"/></svg>