<?xml version="1.0" standalone="no"?>
<!DOCTYPE svg PUBLIC "-//W3C//DTD SVG 20010904//EN"
 "http://www.w3.org/TR/2001/REC-SVG-20010904/DTD/svg10.dtd">
<svg version="1.0" xmlns="http://www.w3.org/2000/svg"
 width="500.000000pt" height="500.000000pt" viewBox="0 0 500.000000 500.000000"
 preserveAspectRatio="xMidYMid meet">

<g transform="translate(0.000000,500.000000) scale(0.100000,-0.100000)"
fill="#000000" stroke="none">
<path d="M2396 2493 c-1 -1 -420 -7 -931 -12 -512 -6 -1046 -14 -1187 -17
l-258 -7 0 -62 c0 -79 33 -324 59 -441 102 -452 328 -861 661 -1194 142 -143
240 -225 387 -322 314 -209 669 -344 1038 -394 151 -21 580 -24 628 -5 16 6
61 13 102 16 71 6 201 42 160 45 -19 1 -19 2 -1 9 18 7 18 8 3 14 -9 3 -17 2
-17 -2 0 -5 -15 -5 -34 -1 -26 6 -36 4 -40 -6 -3 -8 -13 -13 -23 -13 -16 1
-16 2 1 6 15 4 16 7 5 14 -12 7 -12 9 0 9 11 0 11 3 1 15 -10 13 -9 15 9 15
11 0 21 -5 21 -10 0 -11 96 -7 107 4 4 3 2 11 -5 18 -8 8 -9 49 -5 140 l6 128
-32 0 -31 0 6 -72 c3 -40 8 -79 10 -86 3 -9 -2 -11 -17 -7 -13 4 -27 0 -40
-11 -19 -17 -19 -15 -19 119 l0 137 -30 0 -30 0 0 79 c0 46 -4 81 -10 83 -7 2
-10 40 -7 103 2 67 6 93 11 78 5 -13 12 -23 17 -23 5 0 9 -29 9 -65 0 -57 2
-64 18 -58 9 4 20 11 24 17 9 13 10 -5 8 -151 -2 -123 7 -206 21 -197 5 3 9
104 8 227 -1 172 -5 230 -16 257 -9 19 -17 29 -20 22 -10 -27 -23 2 -23 54 0
47 -2 54 -20 54 -17 0 -20 -7 -20 -40 0 -22 -4 -40 -10 -40 -5 0 -10 18 -10
40 0 33 -3 40 -20 40 -17 0 -20 7 -20 39 0 23 5 41 13 44 16 5 -9 37 -30 37
-7 0 -17 8 -20 18 -4 9 -11 21 -17 25 -8 6 -7 10 2 14 9 3 12 45 12 161 0 145
-2 158 -22 189 -13 18 -26 33 -30 33 -5 0 -8 7 -8 16 0 14 3 14 15 4 9 -7 18
-10 21 -7 10 10 -4 37 -18 35 -8 -2 -14 11 -16 36 -3 40 -26 74 -37 56 -9 -15
-25 -12 -25 5 0 8 5 15 10 15 20 0 11 48 -10 53 -11 3 -20 10 -20 16 0 6 9 11
20 11 17 0 20 7 20 40 0 35 -3 40 -22 40 -22 0 -23 4 -24 88 -1 102 -6 122
-33 122 -10 0 -21 7 -25 15 -4 10 1 15 14 15 24 0 26 13 5 30 -7 6 -17 32 -21
57 -3 24 -13 47 -21 50 -8 3 -12 12 -9 19 3 7 1 16 -3 19 -5 3 -8 21 -6 40 2
19 0 35 -4 35 -11 0 -31 47 -31 71 0 33 -28 52 -77 53 -25 1 -46 0 -47 -1z
m240 -530 c-10 -10 -19 5 -10 18 6 11 8 11 12 0 2 -7 1 -15 -2 -18z m331
-1185 c-2 -13 -4 -3 -4 22 0 25 2 35 4 23 2 -13 2 -33 0 -45z m13 -589 c0 -5
-4 -9 -10 -9 -5 0 -10 7 -10 16 0 8 5 12 10 9 6 -3 10 -10 10 -16z m80 -23 c0
-3 -4 -8 -10 -11 -5 -3 -10 -1 -10 4 0 6 5 11 10 11 6 0 10 -2 10 -4z m-25
-66 c4 -7 -3 -8 -22 -4 -38 9 -42 14 -10 14 14 0 29 -5 32 -10z m-135 -10 c0
-5 -4 -10 -10 -10 -5 0 -10 5 -10 10 0 6 5 10 10 10 6 0 10 -4 10 -10z m53 -7
c-7 -2 -19 -2 -25 0 -7 3 -2 5 12 5 14 0 19 -2 13 -5z m44 1 c-3 -3 -12 -4
-19 -1 -8 3 -5 6 6 6 11 1 17 -2 13 -5z m-90 -20 c-3 -3 -12 -4 -19 -1 -8 3
-5 6 6 6 11 1 17 -2 13 -5z"/>
<path d="M2926 1265 c-9 -23 -8 -25 9 -25 17 0 19 9 6 28 -7 11 -10 10 -15 -3z"/>
<path d="M3058 872 c-7 -27 3 -112 13 -112 12 0 12 117 0 124 -5 3 -11 -2 -13
-12z"/>
<path d="M3063 640 c0 -25 2 -35 4 -22 2 12 2 32 0 45 -2 12 -4 2 -4 -23z"/>
<path d="M3120 588 c1 -109 14 -101 25 15 6 67 5 77 -9 77 -14 0 -16 -14 -16
-92z"/>
<path d="M3190 400 c0 -22 5 -40 10 -40 6 0 10 18 10 40 0 22 -4 40 -10 40 -5
0 -10 -18 -10 -40z"/>
<path d="M3200 258 c0 -14 -6 -31 -14 -38 -8 -6 -13 -17 -10 -24 4 -10 -2 -12
-19 -9 -27 5 -47 -15 -27 -27 19 -12 47 -1 58 23 6 12 11 16 11 10 1 -7 5 -13
9 -13 5 0 7 21 6 46 -3 50 -14 74 -14 32z"/>
<path d="M3105 210 c-3 -5 -1 -10 4 -10 6 0 11 5 11 10 0 6 -2 10 -4 10 -3 0
-8 -4 -11 -10z"/>
<path d="M3208 163 c7 -3 16 -2 19 1 4 3 -2 6 -13 5 -11 0 -14 -3 -6 -6z"/>
<path d="M3093 103 c9 -2 23 -2 30 0 6 3 -1 5 -18 5 -16 0 -22 -2 -12 -5z"/>
</g>
</svg>
